<?xml version="1.0" standalone="yes"?>
<svg xmlns="http://www.w3.org/2000/svg" width="349" height="413">
<path style="fill:#ffffff; stroke:none;" d="M0 0L0 413L349 413L349 0L0 0z"/>
<path style="fill:#ed1d25; stroke:none;" d="M155 59L154 59C135.548 11.0306 47.1589 31.4183 55.439 84C64.2149 139.73 157.819 135.2 159 78L160 78C167.629 103.744 196.414 102.307 215 92C200.981 116.11 214.833 142.834 239 153.561C266.927 165.957 304.75 163.758 326.96 140.985C349.3 118.078 337.219 85.6767 311 72.3735C283.229 58.2826 248.394 62.2498 224 81C230.572 63.9644 231.287 44.3489 217.7 30.1736C192.928 4.32913 156.354 27.5525 155 59z"/>
<path style="fill:#ffffff; stroke:none;" d="M159 78L156 93L168 91L159 78M223 81L222 83L223 81z"/>
<path style="fill:#fff301; stroke:none;" d="M164 91.4329C153.367 92.7841 150.663 104.235 142.999 110.675C136.929 115.776 122.594 118.65 118.916 125.144C105.103 149.53 118.847 187.615 143 199.657C148.269 202.285 154.344 200.606 160 201.888C165.586 203.155 171.236 207.248 177 206.691C193.723 205.075 199.652 196.21 210.09 185.001C219.773 174.602 229.259 164.977 226.851 149C225.614 140.794 215.228 133.995 211.877 126C209.086 119.343 211.182 108.592 205.852 103.67C199.293 97.6129 190.91 101.058 183 98.4799C176.506 96.3633 171.08 90.5332 164 91.4329z"/>
<path style="fill:#ffffff; stroke:none;" d="M215 91L216 92L215 91z"/>
<path style="fill:#fff301; stroke:none;" d="M180.667 92.3333L181.333 92.6667L180.667 92.3333z"/>
<path style="fill:#ffffff; stroke:none;" d="M200 100L210 107L215 92L200 100z"/>
<path style="fill:#ed1d25; stroke:none;" d="M55 128.439C45.5547 129.914 35.8277 133.183 28 138.789C-19.2054 172.596 14.5871 245.51 70 237.572C79.407 236.224 88.0895 233.27 96 227.907C144.283 195.176 111.148 119.67 55 128.439M248 165.428C237.55 166.925 227.784 170.427 219 176.36C168.275 210.616 206.695 285.638 263 277.572C273.415 276.08 283.344 272.891 292 266.791C341.723 231.746 305.14 157.242 248 165.428z"/>
<path style="fill:#ffffff; stroke:none;" d="M119.333 174.667L119.667 175.333L119.333 174.667M221 174L222 175L221 174M189 204L195 231L196 231C194.524 219.323 196.383 210.117 200 199L189 204z"/>
<path style="fill:#ed1d25; stroke:none;" d="M148 201.465C94.5045 211.092 104.347 308.418 160 298.384C177.179 295.287 193.131 277.896 193.736 260C194.07 250.123 189.155 239.943 185.86 231C183.992 225.93 184.312 219.801 181.825 215.004C176.201 204.154 159.252 199.439 148 201.465z"/>
<path style="fill:#24b14e; stroke:none;" d="M181 379C180.982 351.686 157.089 317.248 131 309.59C121.449 306.787 111.604 302.78 102 300.471C98.3141 299.584 93.5018 299.747 92.3179 304.059C90.6765 310.036 92.0696 317.823 91.9961 324C91.6432 353.673 102.381 382.971 133 392.746C143.911 396.23 155.465 397.981 167 398C171.391 398.007 176.386 399.033 179 395L180 395C180.191 397.446 180.509 400.944 183.93 400.534C188.276 400.013 189.472 393.329 193.129 391.318C201.221 386.867 213.016 384.037 222 380.951C239.163 375.054 255.36 370.133 272 362.665C277.353 360.263 284.232 359.185 288.787 355.362C292.079 352.599 293.368 348.214 296.213 345.043C298.834 342.122 302.834 340.327 304.836 336.896C308.115 331.278 311.876 308.371 305.566 304.028C300.23 300.354 284.239 301.165 278 302.225C263.78 304.64 251.06 318.037 241.285 327.41C229.139 339.057 217.877 351.115 206 363C217.113 323.546 207.205 284.114 199.001 245C196.412 232.66 193.27 219.208 189.682 207.148C188.958 204.714 186.035 203.304 184.178 205.608C176.181 215.534 188.881 235.215 190.739 245C196.526 275.464 204.012 303.626 204 335C203.993 352.849 197.685 371.462 181 379z"/>
<path style="fill:#91d9a5; stroke:none;" d="M183 205L184 206L183 205z"/>
<path style="fill:#ffffff; stroke:none;" d="M174 207L174 208L182 214L183 206L174 207z"/>
<path style="fill:#91d9a5; stroke:none;" d="M190 206L190 216L191 216L190 206M182 207L182 215L183 215L182 207M191 217L191 221L192 221L191 217M192 222L192 226L193 226L192 222M193 227L193 230L194 230L193 227M197.333 237.667L197.667 238.333L197.333 237.667M198 240L198 243L199 243L198 240z"/>
<path style="fill:#ffffff; stroke:none;" d="M199 243L200 244L199 243z"/>
<path style="fill:#91d9a5; stroke:none;" d="M199 244L199 248L200 248L199 244M200 249L200 252L201 252L200 249M201 253L201 256L202 256L201 253M202 257L202 262L203 262L202 257M194 260L194 266L195 266L194 260M203 263L203 267L204 267L203 263M195 267L196 268L195 267M205 269L205 273L206 273L205 269M196 270L197 271L196 270M197.333 272.667L197.667 273.333L197.333 272.667M206 274L206 281L207 281L206 274M198 276L198 282L199 282L198 276M207 283L208 284L207 283M199.333 284.667L199.667 285.333L199.333 284.667M208 285L208 293L209 293L208 285M200 287L200 294L201 294L200 287M209 294L209 299L210 299L209 294M201 295L201 302L202 302L201 295M95 299L95 300L101 300L95 299M93 300L94 301L93 300M210 300L210 313L211 313L210 300M92 301L93 302L92 301M104 301L105 302L104 301M277 301L277 302L293 302L277 301M107 302L108 303L107 302M275 302L276 303L275 302M295 302L295 303L304 303L295 302M91 303L91 331L92 331L91 303M109.667 303.333L110.333 303.667L109.667 303.333M202 303L202 314L203 314L202 303M272 304L273 305L272 304M114.667 305.333L115.333 305.667L114.667 305.333M307 305L308 306L307 305M118 306L119 307L118 306M268.667 306.333L269.333 306.667L268.667 306.333M121 307L121 308L125 308L121 307M266 307L267 308L266 307M308 307L308 328L309 328L308 307M127 308L128 309L127 308M99 309L99 338L100 338L99 309z"/>
<path style="fill:#ffffff; stroke:none;" d="M100 309L101 310L100 309z"/>
<path style="fill:#91d9a5; stroke:none;" d="M101.667 309.333L102.333 309.667L101.667 309.333M130.667 309.333L131.333 309.667L130.667 309.333M263 309L264 310L263 309M280 310L280 311L284 310L280 310z"/>
<path style="fill:#ffffff; stroke:none;" d="M103 310L104 311L103 310z"/>
<path style="fill:#91d9a5; stroke:none;" d="M134 310L135 311L134 310M261 310L262 311L261 310z"/>
<path style="fill:#ffffff; stroke:none;" d="M284 310L285 311L284 310z"/>
<path style="fill:#91d9a5; stroke:none;" d="M285 310L285 311L287 313L288 313L285 310z"/>
<path style="fill:#ffffff; stroke:none;" d="M104 311L105 312L104 311z"/>
<path style="fill:#91d9a5; stroke:none;" d="M105 311L105 312L109 312L105 311M136.667 311.333L137.333 311.667L136.667 311.333M260 311L261 312L260 311M278 311L279 312L278 311z"/>
<path style="fill:#ffffff; stroke:none;" d="M279 311L280 312L279 311M109 312L110 313L109 312z"/>
<path style="fill:#91d9a5; stroke:none;" d="M110 312L111 313L110 312M140 312L141 313L140 312M257 312L258 313L257 312z"/>
<path style="fill:#ffffff; stroke:none;" d="M277 312L278 313L277 312M111 313L112 314L111 313z"/>
<path style="fill:#91d9a5; stroke:none;" d="M112 313L112 314L115 314L112 313M256 313L257 314L256 313M276 313L277 314L276 313z"/>
<path style="fill:#ffffff; stroke:none;" d="M287 313L288 314L287 313M116 314L117 315L116 314z"/>
<path style="fill:#91d9a5; stroke:none;" d="M117 314L118 315L117 314M211 314L211 346L212 346L211 314M254 314L255 315L254 314M270 314L270 315L275 315L270 314z"/>
<path style="fill:#ffffff; stroke:none;" d="M275 314L276 315L275 314M288 314L289 315L288 314M119 315L120 316L119 315z"/>
<path style="fill:#91d9a5; stroke:none;" d="M120 315L120 316L124 316L120 315M252 315L253 316L252 315M269 315L270 316L269 315z"/>
<path style="fill:#ffffff; stroke:none;" d="M289 315L290 316L289 315z"/>
<path style="fill:#91d9a5; stroke:none;" d="M290.667 315.333L291.333 315.667L290.667 315.333z"/>
<path style="fill:#ffffff; stroke:none;" d="M125 316L126 317L125 316z"/>
<path style="fill:#91d9a5; stroke:none;" d="M126 316L127 317L126 316M203 316L203 345L204 345L203 316M251 316L252 317L251 316M267 316L268 317L267 316z"/>
<path style="fill:#ffffff; stroke:none;" d="M268 316L269 317L268 316M291 316L292 317L291 316M127 317L128 318L127 317z"/>
<path style="fill:#91d9a5; stroke:none;" d="M128 317L128 318L131 318L128 317M147 317L148 318L147 317M265 317L266 318L265 317z"/>
<path style="fill:#ffffff; stroke:none;" d="M266 317L267 318L266 317z"/>
<path style="fill:#91d9a5; stroke:none;" d="M291.333 317.667L291.667 318.333L291.333 317.667z"/>
<path style="fill:#ffffff; stroke:none;" d="M131 318L132 319L131 318z"/>
<path style="fill:#91d9a5; stroke:none;" d="M132 318L133 319L132 318M264 318L265 319L264 318z"/>
<path style="fill:#ffffff; stroke:none;" d="M133 319L134 320L133 319z"/>
<path style="fill:#91d9a5; stroke:none;" d="M134 319L134 320L137 320L134 319M261.667 319.333L262.333 319.667L261.667 319.333z"/>
<path style="fill:#ffffff; stroke:none;" d="M263 319L264 320L263 319M290 319L291 320L290 319M137 320L138 321L137 320z"/>
<path style="fill:#91d9a5; stroke:none;" d="M248 320L249 321L248 320M260 320L261 321L260 320M290 320L291 321L290 320z"/>
<path style="fill:#ffffff; stroke:none;" d="M138 321L139 322L138 321z"/>
<path style="fill:#91d9a5; stroke:none;" d="M247 321L248 322L247 321M258 321L259 322L258 321z"/>
<path style="fill:#ffffff; stroke:none;" d="M259 321L260 322L259 321M289 321L290 322L289 321M139 322L140 323L139 322z"/>
<path style="fill:#91d9a5; stroke:none;" d="M140 322L141 323L140 322M246 322L247 323L246 322M257 322L258 323L257 322M289 322L290 323L289 322M141 323L142 324L141 323M153 323L154 324L153 323M245 323L246 324L245 323M256 323L257 324L256 323z"/>
<path style="fill:#ffffff; stroke:none;" d="M288 323L289 324L288 323z"/>
<path style="fill:#91d9a5; stroke:none;" d="M298 323L298 328L299 328L298 323z"/>
<path style="fill:#ffffff; stroke:none;" d="M142 324L143 325L142 324z"/>
<path style="fill:#91d9a5; stroke:none;" d="M143 324L144 325L143 324M244 324L245 325L244 324M255 324L256 325L255 324z"/>
<path style="fill:#ffffff; stroke:none;" d="M287 324L288 325L287 324z"/>
<path style="fill:#91d9a5; stroke:none;" d="M144 325L145 326L144 325M243 325L244 326L243 325M254 325L255 326L254 325M287 325L288 326L287 325z"/>
<path style="fill:#ffffff; stroke:none;" d="M144 326L145 327L144 326z"/>
<path style="fill:#91d9a5; stroke:none;" d="M242 326L243 327L242 326z"/>
<path style="fill:#ffffff; stroke:none;" d="M254 326L255 327L254 326M286 326L287 327L286 326M297 326L294 334L295 334L297 326M145 327L146 328L145 327z"/>
<path style="fill:#91d9a5; stroke:none;" d="M156 327L157 328L156 327M253 327L254 328L253 327M286 327L286 330L287 330L286 327z"/>
<path style="fill:#ffffff; stroke:none;" d="M146 328L147 329L146 328z"/>
<path style="fill:#91d9a5; stroke:none;" d="M252 328L253 329L252 328M295 328L296 329L295 328M147 329L148 330L147 329M239 329L240 330L239 329z"/>
<path style="fill:#ffffff; stroke:none;" d="M251 329L252 330L251 329z"/>
<path style="fill:#91d9a5; stroke:none;" d="M297 329L298 330L297 329M307 329L308 330L307 329M148 330L149 331L148 330M159 330L160 331L159 330M238 330L239 331L238 330z"/>
<path style="fill:#ffffff; stroke:none;" d="M250 330L251 331L250 330M285 330L286 331L285 330z"/>
<path style="fill:#91d9a5; stroke:none;" d="M294.333 330.667L294.667 331.333L294.333 330.667M149 331L150 332L149 331M237 331L238 332L237 331M249 331L250 332L249 331M285 331L285 335L286 335L285 331M306 331L306 335L307 335L306 331z"/>
<path style="fill:#ffffff; stroke:none;" d="M149 332L150 333L149 332z"/>
<path style="fill:#91d9a5; stroke:none;" d="M160 332L161 333L160 332M247 332L248 333L247 332z"/>
<path style="fill:#ffffff; stroke:none;" d="M248 332L249 333L248 332z"/>
<path style="fill:#91d9a5; stroke:none;" d="M295 332L296 333L295 332M90 333L90 339L91 339L90 333z"/>
<path style="fill:#ffffff; stroke:none;" d="M150 333L151 334L150 333z"/>
<path style="fill:#91d9a5; stroke:none;" d="M246 333L247 334L246 333M293 333L293 335L295 335L293 333z"/>
<path style="fill:#ffffff; stroke:none;" d="M151 334L152 335L151 334z"/>
<path style="fill:#91d9a5; stroke:none;" d="M152.333 334.667L152.667 335.333L152.333 334.667M245 334L246 335L245 334M232 335L233 336L232 335z"/>
<path style="fill:#ffffff; stroke:none;" d="M245 335L246 336L245 335M152 336L153 337L152 336z"/>
<path style="fill:#91d9a5; stroke:none;" d="M231 336L232 337L231 336M244 336L245 337L244 336z"/>
<path style="fill:#ffffff; stroke:none;" d="M284 336L285 337L284 336z"/>
<path style="fill:#91d9a5; stroke:none;" d="M305 336L306 337L305 336z"/>
<path style="fill:#ffffff; stroke:none;" d="M153 337L154 338L153 337z"/>
<path style="fill:#91d9a5; stroke:none;" d="M242 337L243 338L242 337z"/>
<path style="fill:#ffffff; stroke:none;" d="M243 337L244 338L243 337z"/>
<path style="fill:#91d9a5; stroke:none;" d="M284 337L285 338L284 337M154 338L155 339L154 338M165 338L166 339L165 338M241 338L242 339L241 338M304 338L305 339L304 338z"/>
<path style="fill:#ffffff; stroke:none;" d="M100 339L101 340L100 339z"/>
<path style="fill:#91d9a5; stroke:none;" d="M155 339L156 340L155 339M240 339L241 340L240 339z"/>
<path style="fill:#ffffff; stroke:none;" d="M283 339L284 340L283 339z"/>
<path style="fill:#91d9a5; stroke:none;" d="M303 339L304 340L303 339M91 340L91 344L92 344L91 340z"/>
<path style="fill:#ffffff; stroke:none;" d="M102 340L104 342L102 340z"/>
<path style="fill:#91d9a5; stroke:none;" d="M156 340L157 341L156 340M239 340L240 341L239 340M283 340L284 341L283 340M301 340L302 341L301 340M157 341L158 342L157 341M167.333 341.667L167.667 342.333L167.333 341.667M238 341L239 342L238 341z"/>
<path style="fill:#ffffff; stroke:none;" d="M282 341L283 342L282 341z"/>
<path style="fill:#91d9a5; stroke:none;" d="M299 341L300 342L299 341M103 342L103 356L104 356L103 342M158 342L159 343L158 342M236 342L237 343L236 342z"/>
<path style="fill:#ffffff; stroke:none;" d="M237 342L238 343L237 342M281 342L282 343L281 342z"/>
<path style="fill:#91d9a5; stroke:none;" d="M298 342L299 343L298 342z"/>
<path style="fill:#ffffff; stroke:none;" d="M158 343L159 344L158 343z"/>
<path style="fill:#91d9a5; stroke:none;" d="M235 343L236 344L235 343z"/>
<path style="fill:#ffffff; stroke:none;" d="M280 343L281 344L280 343z"/>
<path style="fill:#91d9a5; stroke:none;" d="M297 343L298 344L297 343M159.333 344.667L159.667 345.333L159.333 344.667M234 344L235 345L234 344z"/>
<path style="fill:#ffffff; stroke:none;" d="M278 344L279 345L278 344z"/>
<path style="fill:#91d9a5; stroke:none;" d="M279 344L280 345L279 344M296 344L297 345L296 344M233 345L234 346L233 345z"/>
<path style="fill:#ffffff; stroke:none;" d="M277 345L278 346L277 345M159 346L160 347L159 346z"/>
<path style="fill:#91d9a5; stroke:none;" d="M202 346L203 347L202 346M232 346L233 347L232 346M294 346L295 347L294 346M92 347L92 351L93 351L92 347z"/>
<path style="fill:#ffffff; stroke:none;" d="M160 347L161 348L160 347z"/>
<path style="fill:#91d9a5; stroke:none;" d="M171 347L172 348L171 347M231 347L232 348L231 347M276 347L277 348L276 347M161 348L162 349L161 348M210 348L211 349L210 348M230 348L231 349L230 348M274 348L275 349L274 348M293 348L294 349L293 348M162 349L163 350L162 349M201 349L202 350L201 349M218 349L219 350L218 349M229 349L230 350L229 349M272 349L270 352L272 349M163 350L164 351L163 350M173 350L174 351L173 350M209.333 350.667L209.667 351.333L209.333 350.667M217 350L218 351L217 350z"/>
<path style="fill:#ffffff; stroke:none;" d="M229 350L230 351L229 350M270 350L271 351L270 350z"/>
<path style="fill:#91d9a5; stroke:none;" d="M292 350L293 351L292 350M164 351L165 352L164 351M216 351L217 352L216 351M228 351L229 352L228 351z"/>
<path style="fill:#ffffff; stroke:none;" d="M269 351L270 352L269 351M164 352L165 353L164 352z"/>
<path style="fill:#91d9a5; stroke:none;" d="M200.333 352.667L200.667 353.333L200.333 352.667M215 352L216 353L215 352M226 352L227 353L226 352z"/>
<path style="fill:#ffffff; stroke:none;" d="M227 352L228 353L227 352M266 352L267 353L266 352z"/>
<path style="fill:#91d9a5; stroke:none;" d="M267.667 352.333L268.333 352.667L267.667 352.333M291 352L292 353L291 352M95 353L95 357L96 357L95 353z"/>
<path style="fill:#ffffff; stroke:none;" d="M165 353L166 354L165 353z"/>
<path style="fill:#91d9a5; stroke:none;" d="M175 353L175 356L176 356L175 353M208 353L208 356L209 356L208 353M225 353L226 354L225 353z"/>
<path style="fill:#ffffff; stroke:none;" d="M263 353L264 354L263 353z"/>
<path style="fill:#91d9a5; stroke:none;" d="M264.667 353.333L265.333 353.667L264.667 353.333M166 354L167 355L166 354M214 354L215 355L214 354M224 354L225 355L224 354z"/>
<path style="fill:#ffffff; stroke:none;" d="M261 354L262 355L261 354z"/>
<path style="fill:#91d9a5; stroke:none;" d="M262 354L263 355L262 354M290 354L291 355L290 354z"/>
<path style="fill:#ffffff; stroke:none;" d="M166 355L167 356L166 355M224 355L225 356L224 355M260 355L261 356L260 355z"/>
<path style="fill:#91d9a5; stroke:none;" d="M289 355L290 356L289 355z"/>
<path style="fill:#ffffff; stroke:none;" d="M104 356L105 357L104 356z"/>
<path style="fill:#91d9a5; stroke:none;" d="M167 356L168 357L167 356M199.333 356.667L199.667 357.333L199.333 356.667M212 356L213 357L212 356M223 356L224 357L223 356z"/>
<path style="fill:#ffffff; stroke:none;" d="M258 356L259 357L258 356z"/>
<path style="fill:#91d9a5; stroke:none;" d="M259 356L260 357L259 356M287 356L288 357L287 356z"/>
<path style="fill:#ffffff; stroke:none;" d="M105 357L106 358L105 357M167.333 357.667L167.667 358.333L167.333 357.667z"/>
<path style="fill:#91d9a5; stroke:none;" d="M176 357L177 358L176 357M207 357L207 360L208 360L207 357M211 357L212 358L211 357z"/>
<path style="fill:#ffffff; stroke:none;" d="M222 357L223 358L222 357M254 357L255 358L254 357z"/>
<path style="fill:#91d9a5; stroke:none;" d="M255 357L255 358L258 358L255 357M285 357L286 358L285 357M96.3333 358.667L96.6667 359.333L96.3333 358.667M105 358L106 359L105 358M210 358L211 359L210 358M221 358L222 359L221 358M252 358L253 359L252 358M283 358L284 359L283 358z"/>
<path style="fill:#ffffff; stroke:none;" d="M106 359L107 360L106 359z"/>
<path style="fill:#91d9a5; stroke:none;" d="M168.333 359.667L168.667 360.333L168.333 359.667M177.333 359.667L177.667 360.333L177.333 359.667z"/>
<path style="fill:#ffffff; stroke:none;" d="M221 359L222 360L221 359M249 359L250 360L249 359z"/>
<path style="fill:#91d9a5; stroke:none;" d="M250 359L251 360L250 359M279 359L279 360L282 360L279 359M106 360L107 361L106 360M198 360L198 363L199 363L198 360M220 360L221 361L220 360M247 360L246 362L247 360M277 360L278 361L277 360M97.3333 361.667L97.6667 362.333L97.3333 361.667z"/>
<path style="fill:#ffffff; stroke:none;" d="M107 361L108 362L107 361M168 361L169 362L168 361z"/>
<path style="fill:#91d9a5; stroke:none;" d="M206.333 361.667L206.667 362.333L206.333 361.667M219 361L220 362L219 361z"/>
<path style="fill:#ffffff; stroke:none;" d="M245 361L246 362L245 361z"/>
<path style="fill:#91d9a5; stroke:none;" d="M274 361L275 362L274 361M107 362L108 363L107 362M169.333 362.667L169.667 363.333L169.333 362.667M178 362L178 366L179 366L178 362M218 362L219 363L218 362z"/>
<path style="fill:#ffffff; stroke:none;" d="M242 362L243 363L242 362z"/>
<path style="fill:#91d9a5; stroke:none;" d="M243.667 362.333L244.333 362.667L243.667 362.333M272 362L273 363L272 362z"/>
<path style="fill:#ffffff; stroke:none;" d="M109 363L119 373L109 363M217 363L218 364L217 363M239 363L240 364L239 363z"/>
<path style="fill:#91d9a5; stroke:none;" d="M240 363L241 364L240 363M269.667 363.333L270.333 363.667L269.667 363.333z"/>
<path style="fill:#ffffff; stroke:none;" d="M169 364L170 365L169 364z"/>
<path style="fill:#91d9a5; stroke:none;" d="M216 364L217 365L216 364z"/>
<path style="fill:#ffffff; stroke:none;" d="M232 364L233 365L232 364z"/>
<path style="fill:#91d9a5; stroke:none;" d="M233 364L233 365L238 365L233 364M268 364L269 365L268 364M99.3333 365.667L99.6667 366.333L99.3333 365.667M170 365L170 369L171 369L170 365z"/>
<path style="fill:#ffffff; stroke:none;" d="M216 365L217 366L216 365z"/>
<path style="fill:#91d9a5; stroke:none;" d="M230 365L231 366L230 365M266 365L267 366L266 365M196 366L197 367L196 366z"/>
<path style="fill:#ffffff; stroke:none;" d="M215 366L216 367L215 366M225 366L226 367L225 366z"/>
<path style="fill:#91d9a5; stroke:none;" d="M226 366L226 367L229 367L226 366M264 366L265 367L264 366M212 368L212 369L223 368L212 368M261.667 367.333L262.333 367.667L261.667 367.333M180.333 368.667L180.667 369.333L180.333 368.667M195 368L196 369L195 368M260 368L261 369L260 368M102.667 369.333L103.333 369.667L102.667 369.333z"/>
<path style="fill:#ffffff; stroke:none;" d="M170 369L171 370L170 369z"/>
<path style="fill:#91d9a5; stroke:none;" d="M258 369L259 370L258 369M104 370L105 371L104 370M171 370L172 371L171 370M256 370L257 371L256 370M105 371L106 372L105 371z"/>
<path style="fill:#ffffff; stroke:none;" d="M171 371L172 372L171 371z"/>
<path style="fill:#91d9a5; stroke:none;" d="M181 371L183 379L181 371M193 371L194 372L193 371M253.667 371.333L254.333 371.667L253.667 371.333M106 372L107 373L106 372M172 372L173 373L172 372M250 372L251 373L250 372M107 373L108 374L107 373M118 373L119 374L118 373z"/>
<path style="fill:#ffffff; stroke:none;" d="M172 373L173 374L172 373z"/>
<path style="fill:#91d9a5; stroke:none;" d="M192 373L193 374L192 373M248 373L249 374L248 373M108 374L109 375L108 374M119 374L120 375L119 374M173 374L173 385L174 385L173 374M190.667 374.333L191.333 374.667L190.667 374.333M243 374L243 375L246 375L243 374M109 375L110 376L109 375z"/>
<path style="fill:#ffffff; stroke:none;" d="M121 375L122 378L123 378L121 375z"/>
<path style="fill:#91d9a5; stroke:none;" d="M188 375L189 376L188 375M241 375L242 376L241 375M110 376L111 377L110 376M185 376L186 377L185 376M237.667 376.333L238.333 376.667L237.667 376.333M184 377L185 378L184 377M231 377L231 378L235 378L231 377M111 378L112 379L111 378M122 378L123 379L122 378z"/>
<path style="fill:#ffffff; stroke:none;" d="M123 379L124 380L123 379z"/>
<path style="fill:#91d9a5; stroke:none;" d="M228 379L229 380L228 379M123 380L124 381L123 380M222 380L222 381L227 381L222 380M114 381L115 382L114 381z"/>
<path style="fill:#ffffff; stroke:none;" d="M124 381L125 382L124 381z"/>
<path style="fill:#91d9a5; stroke:none;" d="M198 381L196 382L196 383L198 381M220 381L221 382L220 381z"/>
<path style="fill:#ffffff; stroke:none;" d="M125 382L126 383L125 382M166 382L166 383L169 383L166 382z"/>
<path style="fill:#91d9a5; stroke:none;" d="M218 382L219 383L218 382M127 383L127 384L130 384L127 383z"/>
<path style="fill:#ffffff; stroke:none;" d="M130 383L131 384L130 383M164 383L165 384L164 383z"/>
<path style="fill:#91d9a5; stroke:none;" d="M165 383L166 384L165 383z"/>
<path style="fill:#ffffff; stroke:none;" d="M170 383L172 385L170 383z"/>
<path style="fill:#91d9a5; stroke:none;" d="M215.667 383.333L216.333 383.667L215.667 383.333M116 384L117 385L116 384M132.667 384.333L133.333 384.667L132.667 384.333z"/>
<path style="fill:#ffffff; stroke:none;" d="M134 384L135 385L134 384z"/>
<path style="fill:#91d9a5; stroke:none;" d="M164 384L165 385L164 384M210 384L210 385L214 385L210 384M136 385L137 386L136 385z"/>
<path style="fill:#ffffff; stroke:none;" d="M137 385L138 386L137 385M163 385L164 386L163 385z"/>
<path style="fill:#91d9a5; stroke:none;" d="M209 385L210 386L209 385M139 386L140 387L139 386M163 386L163 389L164 389L163 386M207 386L208 387L207 386M118 387L119 388L118 387M141 387L142 388L141 387z"/>
<path style="fill:#ffffff; stroke:none;" d="M142 387L143 388L142 387z"/>
<path style="fill:#91d9a5; stroke:none;" d="M205 387L206 388L205 387M119 388L120 389L119 388M144 388L144 389L150 389L144 388z"/>
<path style="fill:#ffffff; stroke:none;" d="M150.667 388.333L151.333 388.667L150.667 388.333z"/>
<path style="fill:#91d9a5; stroke:none;" d="M203 388L204 389L203 388M120 389L121 390L120 389M153 389L153 390L159 390L153 389z"/>
<path style="fill:#ffffff; stroke:none;" d="M159 389L160 390L159 389M163 389L164 390L163 389z"/>
<path style="fill:#91d9a5; stroke:none;" d="M202 389L203 390L202 389M122.667 390.333L123.333 390.667L122.667 390.333M162 390L162 391L165 391L162 390M194 390L194 391L201 391L194 390M125 391L125 392L129 392L125 391M191.667 391.333L192.333 391.667L191.667 391.333M130 392L130 393L133 393L130 392M190.333 392.667L190.667 393.333L190.333 392.667M135 393L136 394L135 393M137 394L138 395L137 394M140 395L141 396L140 395M179 395L179 399L180 399L179 395M189 395L190 396L189 395M143 396L143 397L150 397L143 396M188 396L189 397L188 396M153 397L153 398L159 398L153 397M187.333 397.667L187.667 398.333L187.333 397.667M161 398L161 399L177 399L161 398M186 400L187 401L186 400M182 401L182 402L185 402L182 401z"/>
</svg>
